Coordinates
version=1
nRows=9
nColumns=63
inDegrees=yes

Units are S.I. units (second, meters, Newtons, ...)
If the header above contains a line with 'inDegrees', this indicates whether rotational values are in degrees (yes) or radians (no).

endheader
time	pelvis_tilt	pelvis_list	pelvis_rotation	pelvis_tx	pelvis_ty	pelvis_tz	hip_flexion_r	hip_adduction_r	hip_rotation_r	knee_angle_r	knee_angle_r_beta	ankle_angle_r	subtalar_angle_r	mtp_angle_r	hip_flexion_l	hip_adduction_l	hip_rotation_l	knee_angle_l	knee_angle_l_beta	ankle_angle_l	subtalar_angle_l	mtp_angle_l	L5_S1_Flex_Ext	L5_S1_Lat_Bending	L5_S1_axial_rotation	L4_L5_Flex_Ext	L4_L5_Lat_Bending	L4_L5_axial_rotation	L3_L4_Flex_Ext	L3_L4_Lat_Bending	L3_L4_axial_rotation	L2_L3_Flex_Ext	L2_L3_Lat_Bending	L2_L3_axial_rotation	L1_L2_Flex_Ext	L1_L2_Lat_Bending	L1_L2_axial_rotation	L1_T12_Flex_Ext	L1_T12_Lat_Bending	L1_T12_axial_rotation	Abs_r3	Abs_r2	Abs_r1	Abs_t1	Abs_t2	neck_flexion	neck_bending	neck_rotation	arm_flex_r	arm_add_r	arm_rot_r	elbow_flex_r	pro_sup_r	wrist_flex_r	wrist_dev_r	arm_flex_l	arm_add_l	arm_rot_l	elbow_flex_l	pro_sup_l	wrist_flex_l	wrist_dev_l
3.982456	-0.163302	1.921251	89.987527	0.219514	0.837016	0.519460	-1.118074	2.993293	8.853651	10.583003	0.184708	38.948682	-9.646657	0.000000	-2.674687	-0.683601	20.192666	9.207876	0.160708	39.791301	-17.844816	0.000000	0.035346	0.037135	-0.746311	0.065640	0.049390	-0.792955	0.058069	0.090291	-0.792955	0.040396	0.090291	-0.653022	0.032822	0.075727	-0.606377	0.020196	0.057523	-0.559733	0.252469	0.420083	-4.150755	0.000000	0.000000	26.410383	5.039141	5.830863	15.334166	-16.149745	101.881338	21.826718	82.265181	-17.916385	-1.671968	1.391059	-20.042338	59.019716	26.914225	85.724034	-19.588399	-6.202097
4.000000	-0.109767	1.935254	89.974458	0.219565	0.837065	0.519409	-1.007086	3.025905	8.427235	10.857498	0.189499	39.097246	-9.266522	0.000000	-2.746171	-0.728592	20.094604	9.225682	0.161019	39.787022	-17.782370	0.000000	0.034277	0.041160	-0.700271	0.063655	0.054743	-0.744038	0.056313	0.100076	-0.744038	0.039175	0.100076	-0.612737	0.031829	0.083933	-0.568970	0.019586	0.063757	-0.525203	0.244834	0.465608	-3.894697	0.000000	0.000000	26.412701	4.925671	5.527747	15.211866	-16.220818	101.637522	21.905193	82.688073	-18.181403	-1.563714	1.589891	-20.027311	59.521161	26.855881	85.646599	-19.650312	-6.225115
4.017544	-0.064140	1.942506	89.941428	0.219633	0.837093	0.519388	-0.892398	3.046640	8.015813	11.129126	0.194240	39.240973	-8.889510	0.000000	-2.812593	-0.763767	19.990006	9.237958	0.161233	39.786196	-17.727559	0.000000	0.033902	0.044792	-0.660482	0.062960	0.059574	-0.701762	0.055698	0.108908	-0.701762	0.038747	0.108908	-0.577922	0.031482	0.091340	-0.536642	0.019372	0.069383	-0.495362	0.242159	0.506698	-3.673404	0.000000	0.000000	26.410837	4.837719	5.289124	15.131721	-16.264234	101.539211	21.955103	83.074120	-18.428833	-1.443468	1.754327	-20.013541	60.009584	26.791930	85.515941	-19.742793	-6.259013
4.035088	-0.029380	1.947672	89.889044	0.219708	0.837111	0.519397	-0.782192	3.050696	7.617011	11.384875	0.198704	39.387390	-8.494165	0.000000	-2.881082	-0.788913	19.883530	9.228476	0.161067	39.787731	-17.681636	0.000000	0.033150	0.047865	-0.629037	0.061562	0.063660	-0.668352	0.054461	0.116379	-0.668352	0.037887	0.116379	-0.550407	0.030783	0.097606	-0.511092	0.018942	0.074143	-0.471778	0.236784	0.541458	-3.498514	0.000000	0.000000	26.411266	4.776838	5.125948	15.083577	-16.298330	101.454863	22.011518	83.480327	-18.630048	-1.283052	1.852179	-20.003129	60.321632	26.760315	85.420046	-19.812374	-6.266294
4.052632	-0.008218	1.946489	89.821267	0.219788	0.837127	0.519453	-0.667370	3.029835	7.141711	11.622640	0.202853	39.576627	-7.942727	0.000000	-2.942834	-0.802437	19.779538	9.193018	0.160448	39.788424	-17.647402	0.000000	0.032716	0.050077	-0.605269	0.060757	0.066602	-0.643098	0.053749	0.121757	-0.643098	0.037391	0.121757	-0.529610	0.030380	0.102117	-0.491781	0.018694	0.077569	-0.453952	0.233687	0.566479	-3.366324	0.000000	0.000000	26.411261	4.737704	5.033042	15.084681	-16.299666	101.573340	22.029929	83.722370	-18.787321	-1.147998	1.928486	-19.994302	60.614349	26.720886	85.291186	-19.895275	-6.283681
4.070175	0.003522	1.939085	89.745556	0.219882	0.837148	0.519541	-0.567230	3.007755	6.799156	11.802666	0.205995	39.735421	-7.507541	0.000000	-2.989741	-0.809871	19.678898	9.144457	0.159601	39.795624	-17.622738	0.000000	0.032673	0.051491	-0.591117	0.060677	0.068484	-0.628062	0.053678	0.125196	-0.628062	0.037342	0.125196	-0.517227	0.030340	0.105001	-0.480282	0.018669	0.079760	-0.443338	0.233379	0.582481	-3.287615	0.000000	0.000000	26.410340	4.726308	5.005215	15.128379	-16.269526	101.831356	22.023030	83.885999	-18.920370	-1.007155	1.962856	-19.996086	60.788867	26.717139	85.202508	-19.983524	-6.252596
4.087719	0.008881	1.928519	89.690809	0.219949	0.837179	0.519645	-0.489518	2.983345	6.513406	11.917390	0.207998	39.884521	-7.115148	0.000000	-3.022995	-0.815899	19.619854	9.080812	0.158490	39.802296	-17.615753	0.000000	0.032666	0.052335	-0.592931	0.060663	0.069605	-0.629989	0.053666	0.127246	-0.629989	0.037333	0.127246	-0.518814	0.030333	0.106721	-0.481756	0.018665	0.081066	-0.444698	0.233327	0.592019	-3.297702	0.000000	0.000000	26.407837	4.753607	5.054912	15.226202	-16.204882	102.280385	21.994372	83.963378	-19.056222	-0.850303	1.925973	-20.001159	60.685796	26.763695	85.186866	-19.987389	-6.150980
4.105263	0.014856	1.910520	89.648352	0.220006	0.837218	0.519775	-0.426080	2.971020	6.343397	11.966904	0.208862	40.006053	-6.835620	0.000000	-3.030776	-0.826422	19.589567	9.016690	0.157371	39.814906	-17.626103	0.000000	0.033297	0.053269	-0.606565	0.061836	0.070848	-0.644475	0.054704	0.129519	-0.644475	0.038055	0.129519	-0.530744	0.030920	0.108626	-0.492834	0.019026	0.082514	-0.454923	0.237839	0.602591	-3.373530	0.000000	0.000000	26.402022	4.803678	5.156157	15.359593	-16.119345	102.786242	21.938649	83.960889	-19.127948	-0.727089	1.866509	-20.002268	60.496403	26.811018	85.178909	-19.968138	-6.014543
4.122807	0.018701	1.887521	89.621077	0.220030	0.837263	0.519922	-0.372458	2.959196	6.196912	11.968220	0.208885	40.120321	-6.561859	0.000000	-3.016363	-0.837231	19.593557	8.953495	0.156268	39.830477	-17.650169	0.000000	0.034348	0.054390	-0.634614	0.063788	0.072339	-0.674278	0.056431	0.132244	-0.674278	0.039257	0.132244	-0.555288	0.031896	0.110912	-0.515624	0.019627	0.084250	-0.475961	0.245347	0.615271	-3.529535	0.000000	0.000000	26.395054	4.873246	5.314670	15.550641	-16.010919	103.453164	21.858255	83.868889	-19.170940	-0.652028	1.768548	-20.000870	60.185176	26.866232	85.186762	-19.895329	-5.852897
